<svg width="112" height="16" viewBox="0 0 112 16" fill="none" xmlns="http://www.w3.org/2000/svg">
<path d="M7.9987 1.33398C7.63051 1.33398 7.33203 1.63246 7.33203 2.00065V4.00065C7.33203 4.36884 7.63051 4.66732 7.9987 4.66732C8.36689 4.66732 8.66536 4.36884 8.66536 4.00065V2.00065C8.66536 1.63246 8.36689 1.33398 7.9987 1.33398Z" fill="#0F0051"/>
<path d="M7.9987 11.334C7.63051 11.334 7.33203 11.6325 7.33203 12.0007V14.0007C7.33203 14.3688 7.63051 14.6673 7.9987 14.6673C8.36689 14.6673 8.66536 14.3688 8.66536 14.0007V12.0007C8.66536 11.6325 8.36689 11.334 7.9987 11.334Z" fill="#0F0051"/>
<path d="M13.9987 7.33398C14.3669 7.33398 14.6654 7.63246 14.6654 8.00065C14.6654 8.36884 14.3669 8.66732 13.9987 8.66732H11.9987C11.6305 8.66732 11.332 8.36884 11.332 8.00065C11.332 7.63246 11.6305 7.33398 11.9987 7.33398H13.9987Z" fill="#0F0051"/>
<path d="M4.66536 8.00065C4.66536 7.63246 4.36689 7.33398 3.9987 7.33398H1.9987C1.63051 7.33398 1.33203 7.63246 1.33203 8.00065C1.33203 8.36884 1.63051 8.66732 1.9987 8.66732H3.9987C4.36689 8.66732 4.66536 8.36884 4.66536 8.00065Z" fill="#0F0051"/>
<path d="M11.77 3.28667C12.0303 3.02632 12.4524 3.02632 12.7128 3.28667C12.9731 3.54702 12.9731 3.96913 12.7128 4.22948L11.2986 5.64369C11.0382 5.90404 10.6161 5.90404 10.3558 5.64369C10.0954 5.38334 10.0954 4.96123 10.3558 4.70088L11.77 3.28667Z" fill="#0F0051"/>
<path d="M5.64165 10.3576C5.3813 10.0973 4.95919 10.0973 4.69884 10.3576L3.28463 11.7718C3.02428 12.0322 3.02428 12.4543 3.28463 12.7147C3.54498 12.975 3.96709 12.975 4.22744 12.7147L5.64165 11.3004C5.902 11.0401 5.902 10.618 5.64165 10.3576Z" fill="#0F0051"/>
<path d="M12.7128 11.7719C12.9731 12.0323 12.9731 12.4544 12.7128 12.7147C12.4524 12.9751 12.0303 12.9751 11.7699 12.7147L10.3557 11.3005C10.0954 11.0402 10.0954 10.6181 10.3557 10.3577C10.6161 10.0974 11.0382 10.0974 11.2985 10.3577L12.7128 11.7719Z" fill="#0F0051"/>
<path d="M5.64171 5.64361C5.90206 5.38326 5.90206 4.96115 5.64171 4.7008L4.2275 3.28658C3.96715 3.02623 3.54504 3.02623 3.28469 3.28658C3.02434 3.54693 3.02434 3.96904 3.28469 4.22939L4.6989 5.64361C4.95925 5.90395 5.38136 5.90395 5.64171 5.64361Z" fill="#0F0051"/>
<path d="M31.9987 1.33398C31.6305 1.33398 31.332 1.63246 31.332 2.00065V4.00065C31.332 4.36884 31.6305 4.66732 31.9987 4.66732C32.3669 4.66732 32.6654 4.36884 32.6654 4.00065V2.00065C32.6654 1.63246 32.3669 1.33398 31.9987 1.33398Z" fill="#0F0051"/>
<path d="M31.9987 11.334C31.6305 11.334 31.332 11.6325 31.332 12.0007V14.0007C31.332 14.3688 31.6305 14.6673 31.9987 14.6673C32.3669 14.6673 32.6654 14.3688 32.6654 14.0007V12.0007C32.6654 11.6325 32.3669 11.334 31.9987 11.334Z" fill="#0F0051"/>
<path d="M37.9987 7.33398C38.3669 7.33398 38.6654 7.63246 38.6654 8.00065C38.6654 8.36884 38.3669 8.66732 37.9987 8.66732H35.9987C35.6305 8.66732 35.332 8.36884 35.332 8.00065C35.332 7.63246 35.6305 7.33398 35.9987 7.33398H37.9987Z" fill="#0F0051"/>
<path d="M28.6654 8.00065C28.6654 7.63246 28.3669 7.33398 27.9987 7.33398H25.9987C25.6305 7.33398 25.332 7.63246 25.332 8.00065C25.332 8.36884 25.6305 8.66732 25.9987 8.66732H27.9987C28.3669 8.66732 28.6654 8.36884 28.6654 8.00065Z" fill="#0F0051"/>
<path d="M35.77 3.28667C36.0303 3.02632 36.4524 3.02632 36.7128 3.28667C36.9731 3.54702 36.9731 3.96913 36.7128 4.22948L35.2986 5.64369C35.0382 5.90404 34.6161 5.90404 34.3558 5.64369C34.0954 5.38334 34.0954 4.96123 34.3558 4.70088L35.77 3.28667Z" fill="#0F0051"/>
<path d="M29.6417 10.3576C29.3813 10.0973 28.9592 10.0973 28.6988 10.3576L27.2846 11.7718C27.0243 12.0322 27.0243 12.4543 27.2846 12.7147C27.545 12.975 27.9671 12.975 28.2274 12.7147L29.6417 11.3004C29.902 11.0401 29.902 10.618 29.6417 10.3576Z" fill="#0F0051"/>
<path d="M36.7128 11.7719C36.9731 12.0323 36.9731 12.4544 36.7128 12.7147C36.4524 12.9751 36.0303 12.9751 35.7699 12.7147L34.3557 11.3005C34.0954 11.0402 34.0954 10.6181 34.3557 10.3577C34.6161 10.0974 35.0382 10.0974 35.2985 10.3577L36.7128 11.7719Z" fill="#0F0051"/>
<path d="M29.6417 5.64361C29.9021 5.38326 29.9021 4.96115 29.6417 4.7008L28.2275 3.28658C27.9672 3.02623 27.545 3.02623 27.2847 3.28658C27.0243 3.54693 27.0243 3.96904 27.2847 4.22939L28.6989 5.64361C28.9593 5.90395 29.3814 5.90395 29.6417 5.64361Z" fill="#0F0051"/>
<path d="M55.9987 1.33398C55.6305 1.33398 55.332 1.63246 55.332 2.00065V4.00065C55.332 4.36884 55.6305 4.66732 55.9987 4.66732C56.3669 4.66732 56.6654 4.36884 56.6654 4.00065V2.00065C56.6654 1.63246 56.3669 1.33398 55.9987 1.33398Z" fill="#0F0051"/>
<path d="M55.9987 11.334C55.6305 11.334 55.332 11.6325 55.332 12.0007V14.0007C55.332 14.3688 55.6305 14.6673 55.9987 14.6673C56.3669 14.6673 56.6654 14.3688 56.6654 14.0007V12.0007C56.6654 11.6325 56.3669 11.334 55.9987 11.334Z" fill="#0F0051"/>
<path d="M61.9987 7.33398C62.3669 7.33398 62.6654 7.63246 62.6654 8.00065C62.6654 8.36884 62.3669 8.66732 61.9987 8.66732H59.9987C59.6305 8.66732 59.332 8.36884 59.332 8.00065C59.332 7.63246 59.6305 7.33398 59.9987 7.33398H61.9987Z" fill="#0F0051"/>
<path d="M52.6654 8.00065C52.6654 7.63246 52.3669 7.33398 51.9987 7.33398H49.9987C49.6305 7.33398 49.332 7.63246 49.332 8.00065C49.332 8.36884 49.6305 8.66732 49.9987 8.66732H51.9987C52.3669 8.66732 52.6654 8.36884 52.6654 8.00065Z" fill="#0F0051"/>
<path d="M59.77 3.28667C60.0303 3.02632 60.4524 3.02632 60.7128 3.28667C60.9731 3.54702 60.9731 3.96913 60.7128 4.22948L59.2986 5.64369C59.0382 5.90404 58.6161 5.90404 58.3558 5.64369C58.0954 5.38334 58.0954 4.96123 58.3558 4.70088L59.77 3.28667Z" fill="#0F0051"/>
<path d="M53.6417 10.3576C53.3813 10.0973 52.9592 10.0973 52.6988 10.3576L51.2846 11.7718C51.0243 12.0322 51.0243 12.4543 51.2846 12.7147C51.545 12.975 51.9671 12.975 52.2274 12.7147L53.6417 11.3004C53.902 11.0401 53.902 10.618 53.6417 10.3576Z" fill="#0F0051"/>
<path d="M60.7128 11.7719C60.9731 12.0323 60.9731 12.4544 60.7128 12.7147C60.4524 12.9751 60.0303 12.9751 59.7699 12.7147L58.3557 11.3005C58.0954 11.0402 58.0954 10.6181 58.3557 10.3577C58.6161 10.0974 59.0382 10.0974 59.2985 10.3577L60.7128 11.7719Z" fill="#0F0051"/>
<path d="M53.6417 5.64361C53.9021 5.38326 53.9021 4.96115 53.6417 4.7008L52.2275 3.28658C51.9672 3.02623 51.545 3.02623 51.2847 3.28658C51.0243 3.54693 51.0243 3.96904 51.2847 4.22939L52.6989 5.64361C52.9593 5.90395 53.3814 5.90395 53.6417 5.64361Z" fill="#0F0051"/>
<path d="M79.9987 1.33398C79.6305 1.33398 79.332 1.63246 79.332 2.00065V4.00065C79.332 4.36884 79.6305 4.66732 79.9987 4.66732C80.3669 4.66732 80.6654 4.36884 80.6654 4.00065V2.00065C80.6654 1.63246 80.3669 1.33398 79.9987 1.33398Z" fill="#0F0051"/>
<path d="M79.9987 11.334C79.6305 11.334 79.332 11.6325 79.332 12.0007V14.0007C79.332 14.3688 79.6305 14.6673 79.9987 14.6673C80.3669 14.6673 80.6654 14.3688 80.6654 14.0007V12.0007C80.6654 11.6325 80.3669 11.334 79.9987 11.334Z" fill="#0F0051"/>
<path d="M85.9987 7.33398C86.3669 7.33398 86.6654 7.63246 86.6654 8.00065C86.6654 8.36884 86.3669 8.66732 85.9987 8.66732H83.9987C83.6305 8.66732 83.332 8.36884 83.332 8.00065C83.332 7.63246 83.6305 7.33398 83.9987 7.33398H85.9987Z" fill="#0F0051"/>
<path d="M76.6654 8.00065C76.6654 7.63246 76.3669 7.33398 75.9987 7.33398H73.9987C73.6305 7.33398 73.332 7.63246 73.332 8.00065C73.332 8.36884 73.6305 8.66732 73.9987 8.66732H75.9987C76.3669 8.66732 76.6654 8.36884 76.6654 8.00065Z" fill="#0F0051"/>
<path d="M83.77 3.28667C84.0303 3.02632 84.4524 3.02632 84.7128 3.28667C84.9731 3.54702 84.9731 3.96913 84.7128 4.22948L83.2986 5.64369C83.0382 5.90404 82.6161 5.90404 82.3558 5.64369C82.0954 5.38334 82.0954 4.96123 82.3558 4.70088L83.77 3.28667Z" fill="#0F0051"/>
<path d="M77.6417 10.3576C77.3813 10.0973 76.9592 10.0973 76.6988 10.3576L75.2846 11.7718C75.0243 12.0322 75.0243 12.4543 75.2846 12.7147C75.545 12.975 75.9671 12.975 76.2274 12.7147L77.6417 11.3004C77.902 11.0401 77.902 10.618 77.6417 10.3576Z" fill="#0F0051"/>
<path d="M84.7128 11.7719C84.9731 12.0323 84.9731 12.4544 84.7128 12.7147C84.4524 12.9751 84.0303 12.9751 83.7699 12.7147L82.3557 11.3005C82.0954 11.0402 82.0954 10.6181 82.3557 10.3577C82.6161 10.0974 83.0382 10.0974 83.2985 10.3577L84.7128 11.7719Z" fill="#0F0051"/>
<path d="M77.6417 5.64361C77.9021 5.38326 77.9021 4.96115 77.6417 4.7008L76.2275 3.28658C75.9672 3.02623 75.545 3.02623 75.2847 3.28658C75.0243 3.54693 75.0243 3.96904 75.2847 4.22939L76.6989 5.64361C76.9593 5.90395 77.3814 5.90395 77.6417 5.64361Z" fill="#0F0051"/>
<path d="M103.999 1.33398C103.631 1.33398 103.332 1.63246 103.332 2.00065V4.00065C103.332 4.36884 103.631 4.66732 103.999 4.66732C104.367 4.66732 104.665 4.36884 104.665 4.00065V2.00065C104.665 1.63246 104.367 1.33398 103.999 1.33398Z" fill="#0F0051"/>
<path d="M103.999 11.334C103.631 11.334 103.332 11.6325 103.332 12.0007V14.0007C103.332 14.3688 103.631 14.6673 103.999 14.6673C104.367 14.6673 104.665 14.3688 104.665 14.0007V12.0007C104.665 11.6325 104.367 11.334 103.999 11.334Z" fill="#0F0051"/>
<path d="M109.999 7.33398C110.367 7.33398 110.665 7.63246 110.665 8.00065C110.665 8.36884 110.367 8.66732 109.999 8.66732H107.999C107.631 8.66732 107.332 8.36884 107.332 8.00065C107.332 7.63246 107.631 7.33398 107.999 7.33398H109.999Z" fill="#0F0051"/>
<path d="M100.665 8.00065C100.665 7.63246 100.367 7.33398 99.9987 7.33398H97.9987C97.6305 7.33398 97.332 7.63246 97.332 8.00065C97.332 8.36884 97.6305 8.66732 97.9987 8.66732H99.9987C100.367 8.66732 100.665 8.36884 100.665 8.00065Z" fill="#0F0051"/>
<path d="M107.77 3.28667C108.03 3.02632 108.452 3.02632 108.713 3.28667C108.973 3.54702 108.973 3.96913 108.713 4.22948L107.299 5.64369C107.038 5.90404 106.616 5.90404 106.356 5.64369C106.095 5.38334 106.095 4.96123 106.356 4.70088L107.77 3.28667Z" fill="#0F0051"/>
<path d="M101.642 10.3576C101.381 10.0973 100.959 10.0973 100.699 10.3576L99.2846 11.7718C99.0243 12.0322 99.0243 12.4543 99.2846 12.7147C99.545 12.975 99.9671 12.975 100.227 12.7147L101.642 11.3004C101.902 11.0401 101.902 10.618 101.642 10.3576Z" fill="#0F0051"/>
<path d="M108.713 11.7719C108.973 12.0323 108.973 12.4544 108.713 12.7147C108.452 12.9751 108.03 12.9751 107.77 12.7147L106.356 11.3005C106.095 11.0402 106.095 10.6181 106.356 10.3577C106.616 10.0974 107.038 10.0974 107.299 10.3577L108.713 11.7719Z" fill="#0F0051"/>
<path d="M101.642 5.64361C101.902 5.38326 101.902 4.96115 101.642 4.7008L100.228 3.28658C99.9672 3.02623 99.545 3.02623 99.2847 3.28658C99.0243 3.54693 99.0243 3.96904 99.2847 4.22939L100.699 5.64361C100.959 5.90395 101.381 5.90395 101.642 5.64361Z" fill="#0F0051"/>
</svg>
