<svg aria-hidden="true" style="position: absolute; width: 0; height: 0; overflow: hidden;" version="1.1" xmlns="http://www.w3.org/2000/svg" xmlns:xlink="http://www.w3.org/1999/xlink">
  <defs>


<symbol id="icon-Link-telegram" viewBox="0 0 32 32">
<path fill="#5fcdfc" style="fill: var(--color1, #5fcdfc)" d="M0.495 8.629c0.516-4.278 3.858-7.6 8.137-8.115 2.364-0.285 5.001-0.514 7.368-0.514s5.004 0.229 7.368 0.514c4.279 0.515 7.621 3.837 8.137 8.115 0.276 2.291 0.495 4.848 0.495 7.189 0 2.402-0.231 5.082-0.517 7.482-0.514 4.312-3.87 7.677-8.182 8.194-2.347 0.281-4.957 0.506-7.301 0.506s-4.954-0.225-7.301-0.506c-4.312-0.516-7.668-3.882-8.182-8.194-0.286-2.401-0.517-5.081-0.517-7.482 0-2.342 0.219-4.898 0.495-7.189z"></path>
<path fill="#fefffc" style="fill: var(--color2, #fefffc)" d="M9.052 15.47c0.034-0.017 0.067-0.032 0.1-0.047 0.571-0.261 1.149-0.506 1.727-0.751 0.031 0 0.083-0.036 0.113-0.047 0.045-0.019 0.089-0.037 0.134-0.057l0.257-0.109c0.172-0.072 0.343-0.145 0.514-0.217 0.343-0.145 0.685-0.29 1.028-0.435 0.685-0.29 1.372-0.58 2.057-0.87s1.372-0.58 2.057-0.87c0.685-0.29 1.372-0.58 2.057-0.87s1.372-0.58 2.057-0.87c0.152-0.065 0.317-0.162 0.481-0.19 0.137-0.024 0.271-0.071 0.409-0.097 0.262-0.049 0.551-0.069 0.802 0.038 0.087 0.037 0.167 0.090 0.233 0.156 0.318 0.311 0.274 0.822 0.206 1.26-0.469 3.052-0.938 6.105-1.408 9.157-0.064 0.419-0.152 0.878-0.486 1.143-0.283 0.224-0.685 0.249-1.035 0.154s-0.658-0.296-0.96-0.494c-1.254-0.821-2.508-1.642-3.762-2.462-0.298-0.195-0.63-0.45-0.626-0.803 0.002-0.213 0.13-0.403 0.262-0.572 1.090-1.405 2.662-2.371 3.831-3.711 0.165-0.189 0.295-0.53 0.068-0.639-0.135-0.065-0.29 0.023-0.413 0.107-1.546 1.062-3.091 2.124-4.637 3.185-0.504 0.346-1.033 0.703-1.641 0.788-0.544 0.077-1.091-0.073-1.618-0.226-0.441-0.128-0.882-0.26-1.32-0.395-0.233-0.072-0.474-0.149-0.654-0.311s-0.284-0.435-0.175-0.652c0.068-0.136 0.2-0.221 0.339-0.291l0.002 0.001z"></path>
</symbol>

<symbol id="icon-burger-menu-two-line" viewBox="0 0 32 32">
<path stroke-width="2.5" stroke-miterlimit="4" stroke-linecap="round" stroke-linejoin="round" d="M26.666 12h-21.333M26.666 20h-13.333"></path>
</symbol>

<symbol id="icon-icon_youtube" viewBox="0 0 32 32">
<path d="M16 3.2c1.368 0 2.771 0.035 4.131 0.093l1.606 0.077 1.538 0.091 1.44 0.098 1.315 0.102c1.427 0.109 2.771 0.718 3.794 1.719s1.659 2.332 1.797 3.757l0.064 0.68 0.12 1.456c0.112 1.509 0.195 3.154 0.195 4.726s-0.083 3.218-0.195 4.726l-0.12 1.456-0.064 0.68c-0.138 1.425-0.774 2.756-1.797 3.758s-2.367 1.611-3.795 1.719l-1.312 0.101-1.44 0.099-1.539 0.091-1.606 0.077c-1.376 0.060-2.754 0.091-4.131 0.093-1.378-0.002-2.755-0.033-4.131-0.093l-1.606-0.077-1.538-0.091-1.44-0.099-1.315-0.101c-1.428-0.109-2.771-0.717-3.794-1.719s-1.659-2.333-1.797-3.757l-0.064-0.68-0.12-1.456c-0.122-1.573-0.187-3.149-0.195-4.726 0-1.573 0.083-3.218 0.195-4.726l0.12-1.456 0.064-0.68c0.138-1.425 0.774-2.755 1.796-3.757s2.365-1.611 3.793-1.72l1.314-0.102 1.44-0.098 1.539-0.091 1.606-0.077c1.377-0.060 2.755-0.091 4.133-0.093zM12.8 12.12v7.76c0 0.739 0.8 1.2 1.44 0.832l6.72-3.88c0.146-0.084 0.268-0.205 0.352-0.351s0.129-0.312 0.129-0.481-0.044-0.335-0.129-0.481c-0.085-0.146-0.206-0.267-0.352-0.351l-6.72-3.878c-0.146-0.084-0.312-0.129-0.48-0.129s-0.334 0.045-0.48 0.129-0.267 0.206-0.351 0.352c-0.084 0.146-0.128 0.312-0.128 0.48v-0.002z"></path>
</symbol>

<symbol id="icon-icon-facebook" viewBox="0 0 32 32">
<path d="M21.96 32v-12.392h4.16l0.622-4.829h-4.784v-3.083c0-1.398 0.389-2.352 2.395-2.352h2.557v-4.32c-1.238-0.133-2.483-0.197-3.728-0.192-3.686 0-6.21 2.251-6.21 6.384v3.563h-4.173v4.829h4.171v12.392h-15.205c-0.976 0-1.766-0.79-1.766-1.766v-28.467c0-0.976 0.79-1.766 1.766-1.766h28.467c0.976 0 1.766 0.79 1.766 1.766v28.467c0 0.976-0.79 1.766-1.766 1.766h-8.274z"></path>
</symbol>

<symbol id="icon-icon-instagram" viewBox="0 0 32 32">
<path d="M23.111 0c2.357 0 4.618 0.936 6.285 2.603s2.603 3.928 2.603 6.285v14.222c0 2.357-0.936 4.618-2.603 6.285s-3.928 2.603-6.285 2.603h-14.222c-2.357 0-4.618-0.936-6.285-2.603s-2.603-3.928-2.603-6.285v-14.222c0-2.357 0.936-4.618 2.603-6.285s3.928-2.603 6.285-2.603h14.222zM16 8.889c-1.886 0-3.695 0.749-5.028 2.083s-2.083 3.142-2.083 5.028 0.749 3.695 2.083 5.028c1.334 1.334 3.142 2.083 5.028 2.083s3.695-0.749 5.028-2.083c1.334-1.334 2.083-3.142 2.083-5.028s-0.749-3.695-2.083-5.028c-1.334-1.334-3.142-2.083-5.028-2.083zM16 12.444c0.943 0 1.847 0.375 2.514 1.041s1.041 1.571 1.041 2.514c0 0.943-0.375 1.847-1.041 2.514s-1.571 1.041-2.514 1.041c-0.943 0-1.847-0.375-2.514-1.041s-1.041-1.571-1.041-2.514c0-0.943 0.375-1.847 1.041-2.514s1.571-1.041 2.514-1.041zM24 6.222c-0.472 0-0.924 0.187-1.257 0.521s-0.521 0.786-0.521 1.257 0.187 0.924 0.521 1.257c0.333 0.333 0.785 0.521 1.257 0.521s0.924-0.187 1.257-0.521c0.333-0.333 0.521-0.786 0.521-1.257s-0.187-0.924-0.521-1.257c-0.333-0.333-0.785-0.521-1.257-0.521z"></path>
</symbol>

<symbol id="icon-Shape" viewBox="0 0 32 32">
<path d="M15.999 0c-0.884 0-1.6 0.716-1.6 1.6v4.8c0 0.884 0.716 1.6 1.6 1.6s1.6-0.716 1.6-1.6v-4.8c0-0.884-0.716-1.6-1.6-1.6zM10.343 10.343c0.312-0.312 0.469-0.722 0.469-1.131s-0.156-0.819-0.469-1.131l-3.394-3.394c-0.625-0.625-1.638-0.625-2.263 0-0.312 0.312-0.469 0.722-0.469 1.131s0.156 0.819 0.469 1.131l3.394 3.394c0.625 0.625 1.638 0.625 2.263 0zM27.312 4.686c-0.625-0.625-1.638-0.625-2.263 0l-3.394 3.394c-0.312 0.312-0.469 0.722-0.469 1.131s0.156 0.819 0.469 1.131c0.625 0.625 1.638 0.625 2.263 0l3.394-3.394c0.312-0.312 0.469-0.722 0.469-1.131s-0.156-0.819-0.469-1.131zM8 15.999c0-0.884-0.716-1.6-1.6-1.6h-4.8c-0.884 0-1.6 0.716-1.6 1.6s0.716 1.6 1.6 1.6h4.8c0.884 0 1.6-0.716 1.6-1.6zM30.399 14.399h-4.8c-0.884 0-1.6 0.716-1.6 1.6s0.716 1.6 1.6 1.6h4.8c0.884 0 1.6-0.716 1.6-1.6s-0.716-1.6-1.6-1.6zM10.343 21.656c-0.625-0.625-1.638-0.625-2.263 0l-3.394 3.394c-0.312 0.312-0.469 0.722-0.469 1.131s0.156 0.819 0.469 1.131c0.625 0.625 1.638 0.625 2.263 0l3.394-3.394c0.312-0.312 0.469-0.722 0.469-1.131s-0.156-0.819-0.469-1.131zM27.781 26.181c0-0.409-0.156-0.819-0.469-1.131l-3.394-3.394c-0.625-0.625-1.638-0.625-2.263 0-0.312 0.312-0.469 0.722-0.469 1.131s0.156 0.819 0.469 1.131l3.394 3.394c0.625 0.625 1.638 0.625 2.263 0 0.312-0.312 0.469-0.722 0.469-1.131zM15.999 23.999c-0.884 0-1.6 0.716-1.6 1.6v4.8c0 0.884 0.716 1.6 1.6 1.6s1.6-0.716 1.6-1.6v-4.8c0-0.884-0.716-1.6-1.6-1.6z"></path>
</symbol>

<symbol id="icon-btn-on-top" viewBox="0 0 32 32">
<path stroke-width="3.983" stroke-miterlimit="4" stroke-linecap="round" stroke-linejoin="round" d="M15.922 26.88v-20.911"></path>
<path stroke-width="3.983" stroke-miterlimit="4" stroke-linecap="round" stroke-linejoin="round" d="M26.872 15.107l-10.455-9.333-10.455 9.333"></path>
</symbol>

<symbol id="icon-admin-book" viewBox="0 0 38 32">
<path stroke-width="2.8235" stroke-miterlimit="4" stroke-linecap="round" stroke-linejoin="round" d="M18.353 10.447v19.2M18.353 10.447c0-3.163 0-4.743 0.616-5.951 0.541-1.063 1.405-1.927 2.467-2.468 1.208-0.615 2.789-0.615 5.952-0.615h4.894c1.054 0 1.582 0 1.984 0.205 0.354 0.18 0.642 0.468 0.822 0.822 0.205 0.403 0.206 0.93 0.206 1.984v16.565c0 1.054-0.001 1.581-0.206 1.983-0.18 0.354-0.467 0.643-0.821 0.823-0.402 0.205-0.929 0.205-1.981 0.205h-5.332c-1.768 0-2.653 0-3.456 0.244-0.71 0.216-1.37 0.569-1.943 1.040-0.648 0.533-1.139 1.268-2.12 2.739l-1.082 1.624M18.353 10.447c0-3.163-0-4.743-0.616-5.951-0.541-1.063-1.405-1.927-2.468-2.468-1.208-0.615-2.79-0.615-5.952-0.615h-4.894c-1.054 0-1.581 0-1.983 0.205-0.354 0.18-0.642 0.468-0.822 0.822-0.205 0.403-0.205 0.93-0.205 1.984v16.565c0 1.054 0 1.581 0.205 1.983 0.18 0.354 0.468 0.643 0.822 0.823 0.402 0.205 0.928 0.205 1.98 0.205h5.332c1.768 0 2.652 0 3.454 0.244 0.71 0.216 1.373 0.569 1.947 1.040 0.645 0.53 1.133 1.262 2.106 2.721l1.095 1.642"></path>
</symbol>

<symbol id="icon-reviews" viewBox="0 0 32 32">
<path stroke-width="2.1818" stroke-miterlimit="4" stroke-linecap="round" stroke-linejoin="round" d="M14.201 1.312c-0.535 0.221-1.014 0.701-1.972 1.659s-1.438 1.438-1.659 1.972c-0.295 0.713-0.295 1.514 0 2.227 0.221 0.535 0.701 1.014 1.659 1.972s1.438 1.438 1.972 1.659c0.713 0.295 1.514 0.295 2.227 0 0.535-0.221 1.014-0.701 1.972-1.659s1.436-1.438 1.658-1.972c0.295-0.713 0.295-1.514 0-2.227-0.222-0.535-0.699-1.014-1.658-1.972s-1.438-1.438-1.972-1.659c-0.713-0.295-1.514-0.295-2.226 0z"></path>
<path stroke-width="2.1818" stroke-miterlimit="4" stroke-linecap="round" stroke-linejoin="round" d="M4.944 10.569c-0.535 0.221-1.014 0.701-1.972 1.659s-1.438 1.438-1.659 1.972c-0.295 0.713-0.295 1.514 0 2.227 0.221 0.535 0.701 1.014 1.659 1.972s1.438 1.438 1.972 1.659c0.713 0.295 1.514 0.295 2.227 0 0.535-0.222 1.014-0.701 1.972-1.659s1.436-1.438 1.658-1.972c0.295-0.713 0.295-1.514 0-2.227-0.221-0.535-0.699-1.014-1.658-1.972s-1.438-1.438-1.972-1.659c-0.713-0.295-1.514-0.295-2.227 0z"></path>
<path stroke-width="2.1818" stroke-miterlimit="4" stroke-linecap="round" stroke-linejoin="round" d="M21.486 12.228c-0.958 0.958-1.438 1.438-1.659 1.972-0.295 0.713-0.295 1.514 0 2.227 0.221 0.535 0.701 1.014 1.659 1.972s1.438 1.438 1.972 1.659c0.713 0.295 1.514 0.295 2.227 0 0.535-0.222 1.014-0.701 1.972-1.659s1.436-1.438 1.658-1.972c0.295-0.713 0.295-1.514 0-2.227-0.221-0.535-0.699-1.014-1.658-1.972s-1.438-1.438-1.972-1.659c-0.713-0.295-1.514-0.295-2.227 0-0.535 0.221-1.014 0.701-1.972 1.659z"></path>
<path stroke-width="2.1818" stroke-miterlimit="4" stroke-linecap="round" stroke-linejoin="round" d="M14.201 19.826c-0.535 0.221-1.014 0.701-1.972 1.659s-1.438 1.438-1.659 1.972c-0.295 0.713-0.295 1.514 0 2.227 0.221 0.535 0.701 1.014 1.659 1.972s1.438 1.438 1.972 1.659c0.713 0.295 1.514 0.295 2.227 0 0.535-0.221 1.014-0.701 1.972-1.659s1.436-1.438 1.658-1.972c0.295-0.713 0.295-1.514 0-2.227-0.222-0.535-0.699-1.014-1.658-1.972s-1.438-1.438-1.972-1.659c-0.713-0.295-1.514-0.295-2.226 0z"></path>
</symbol>

<symbol id="icon-services" viewBox="0 0 32 32">
<path stroke-width="2.4" stroke-miterlimit="4" stroke-linecap="round" stroke-linejoin="round" d="M15.6 7.6v8h8M15.6 30c-7.953 0-14.4-6.447-14.4-14.4s6.447-14.4 14.4-14.4c7.953 0 14.4 6.447 14.4 14.4s-6.447 14.4-14.4 14.4z"></path>
</symbol>

<symbol id="icon-arrow-exit" viewBox="0 0 37 32">
<path stroke-width="3.4286" stroke-miterlimit="4" stroke-linecap="round" stroke-linejoin="round" d="M1.714 15.429h32M33.714 15.429l-13.714-13.714M33.714 15.429l-13.714 13.714"></path>
</symbol>

<symbol id="icon-admin-exit" viewBox="0 0 34 32">
<path d="M5.774 0c-1.531 0-3 0.608-4.083 1.691s-1.691 2.552-1.691 4.083v20.211c0 1.531 0.608 3 1.691 4.083s2.552 1.691 4.083 1.691h14.436c0.383 0 0.75-0.152 1.021-0.423s0.423-0.638 0.423-1.021-0.152-0.75-0.423-1.021c-0.271-0.271-0.638-0.423-1.021-0.423h-14.436c-0.766 0-1.5-0.304-2.042-0.846s-0.846-1.276-0.846-2.042v-20.211c0-0.766 0.304-1.5 0.846-2.042s1.276-0.846 2.042-0.846h14.436c0.383 0 0.75-0.152 1.021-0.423s0.423-0.638 0.423-1.021-0.152-0.75-0.423-1.021c-0.271-0.271-0.638-0.423-1.021-0.423h-14.436zM24.84 6.919c-0.133-0.138-0.293-0.248-0.469-0.324s-0.365-0.115-0.557-0.117-0.382 0.035-0.559 0.107c-0.178 0.073-0.339 0.18-0.474 0.315s-0.243 0.297-0.315 0.474-0.109 0.367-0.107 0.559c0.002 0.192 0.041 0.381 0.117 0.557s0.186 0.335 0.324 0.469l5.476 5.476h-18.169c-0.383 0-0.75 0.152-1.021 0.423s-0.423 0.638-0.423 1.021c0 0.383 0.152 0.75 0.423 1.021s0.638 0.423 1.021 0.423h18.169l-5.476 5.476c-0.263 0.272-0.409 0.637-0.405 1.015s0.155 0.741 0.423 1.008 0.63 0.42 1.008 0.423c0.379 0.003 0.743-0.142 1.016-0.405l7.94-7.94c0.271-0.271 0.423-0.638 0.423-1.021s-0.152-0.75-0.423-1.021l-7.94-7.94z"></path>
</symbol>

  </defs>
</svg>
