<svg aria-hidden="true" style="position: absolute; width: 0; height: 0; overflow: hidden;" version="1.1" xmlns="http://www.w3.org/2000/svg" xmlns:xlink="http://www.w3.org/1999/xlink">
  <defs>


<symbol id="icon-Link-telegram" viewBox="0 0 32 32">
<path fill="#5fcdfc" style="fill: var(--color1, #5fcdfc)" d="M0.495 8.629c0.516-4.278 3.858-7.6 8.137-8.115 2.364-0.285 5.001-0.514 7.368-0.514s5.004 0.229 7.368 0.514c4.279 0.515 7.621 3.837 8.137 8.115 0.276 2.291 0.495 4.848 0.495 7.189 0 2.402-0.231 5.082-0.517 7.482-0.514 4.312-3.87 7.677-8.182 8.194-2.347 0.281-4.957 0.506-7.301 0.506s-4.954-0.225-7.301-0.506c-4.312-0.516-7.668-3.882-8.182-8.194-0.286-2.401-0.517-5.081-0.517-7.482 0-2.342 0.219-4.898 0.495-7.189z"></path>
<path fill="#fefffc" style="fill: var(--color2, #fefffc)" d="M9.052 15.47c0.034-0.017 0.067-0.032 0.1-0.047 0.571-0.261 1.149-0.506 1.727-0.751 0.031 0 0.083-0.036 0.113-0.047 0.045-0.019 0.089-0.037 0.134-0.057l0.257-0.109c0.172-0.072 0.343-0.145 0.514-0.217 0.343-0.145 0.685-0.29 1.028-0.435 0.685-0.29 1.372-0.58 2.057-0.87s1.372-0.58 2.057-0.87c0.685-0.29 1.372-0.58 2.057-0.87s1.372-0.58 2.057-0.87c0.152-0.065 0.317-0.162 0.481-0.19 0.137-0.024 0.271-0.071 0.409-0.097 0.262-0.049 0.551-0.069 0.802 0.038 0.087 0.037 0.167 0.090 0.233 0.156 0.318 0.311 0.274 0.822 0.206 1.26-0.469 3.052-0.938 6.105-1.408 9.157-0.064 0.419-0.152 0.878-0.486 1.143-0.283 0.224-0.685 0.249-1.035 0.154s-0.658-0.296-0.96-0.494c-1.254-0.821-2.508-1.642-3.762-2.462-0.298-0.195-0.63-0.45-0.626-0.803 0.002-0.213 0.13-0.403 0.262-0.572 1.090-1.405 2.662-2.371 3.831-3.711 0.165-0.189 0.295-0.53 0.068-0.639-0.135-0.065-0.29 0.023-0.413 0.107-1.546 1.062-3.091 2.124-4.637 3.185-0.504 0.346-1.033 0.703-1.641 0.788-0.544 0.077-1.091-0.073-1.618-0.226-0.441-0.128-0.882-0.26-1.32-0.395-0.233-0.072-0.474-0.149-0.654-0.311s-0.284-0.435-0.175-0.652c0.068-0.136 0.2-0.221 0.339-0.291l0.002 0.001z"></path>
</symbol>

<symbol id="icon-burger-menu-two-line" viewBox="0 0 32 32">
<path stroke-width="2.5" stroke-miterlimit="4" stroke-linecap="round" stroke-linejoin="round" d="M26.666 12h-21.333M26.666 20h-13.333"></path>
</symbol>

<symbol id="icon-icon_youtube" viewBox="0 0 32 32">
<path d="M16 3.2c1.368 0 2.771 0.035 4.131 0.093l1.606 0.077 1.538 0.091 1.44 0.098 1.315 0.102c1.427 0.109 2.771 0.718 3.794 1.719s1.659 2.332 1.797 3.757l0.064 0.68 0.12 1.456c0.112 1.509 0.195 3.154 0.195 4.726s-0.083 3.218-0.195 4.726l-0.12 1.456-0.064 0.68c-0.138 1.425-0.774 2.756-1.797 3.758s-2.367 1.611-3.795 1.719l-1.312 0.101-1.44 0.099-1.539 0.091-1.606 0.077c-1.376 0.060-2.754 0.091-4.131 0.093-1.378-0.002-2.755-0.033-4.131-0.093l-1.606-0.077-1.538-0.091-1.44-0.099-1.315-0.101c-1.428-0.109-2.771-0.717-3.794-1.719s-1.659-2.333-1.797-3.757l-0.064-0.68-0.12-1.456c-0.122-1.573-0.187-3.149-0.195-4.726 0-1.573 0.083-3.218 0.195-4.726l0.12-1.456 0.064-0.68c0.138-1.425 0.774-2.755 1.796-3.757s2.365-1.611 3.793-1.72l1.314-0.102 1.44-0.098 1.539-0.091 1.606-0.077c1.377-0.060 2.755-0.091 4.133-0.093zM12.8 12.12v7.76c0 0.739 0.8 1.2 1.44 0.832l6.72-3.88c0.146-0.084 0.268-0.205 0.352-0.351s0.129-0.312 0.129-0.481-0.044-0.335-0.129-0.481c-0.085-0.146-0.206-0.267-0.352-0.351l-6.72-3.878c-0.146-0.084-0.312-0.129-0.48-0.129s-0.334 0.045-0.48 0.129-0.267 0.206-0.351 0.352c-0.084 0.146-0.128 0.312-0.128 0.48v-0.002z"></path>
</symbol>

<symbol id="icon-icon-facebook" viewBox="0 0 32 32">
<path d="M21.96 32v-12.392h4.16l0.622-4.829h-4.784v-3.083c0-1.398 0.389-2.352 2.395-2.352h2.557v-4.32c-1.238-0.133-2.483-0.197-3.728-0.192-3.686 0-6.21 2.251-6.21 6.384v3.563h-4.173v4.829h4.171v12.392h-15.205c-0.976 0-1.766-0.79-1.766-1.766v-28.467c0-0.976 0.79-1.766 1.766-1.766h28.467c0.976 0 1.766 0.79 1.766 1.766v28.467c0 0.976-0.79 1.766-1.766 1.766h-8.274z"></path>
</symbol>

<symbol id="icon-icon-instagram" viewBox="0 0 32 32">
<path d="M23.111 0c2.357 0 4.618 0.936 6.285 2.603s2.603 3.928 2.603 6.285v14.222c0 2.357-0.936 4.618-2.603 6.285s-3.928 2.603-6.285 2.603h-14.222c-2.357 0-4.618-0.936-6.285-2.603s-2.603-3.928-2.603-6.285v-14.222c0-2.357 0.936-4.618 2.603-6.285s3.928-2.603 6.285-2.603h14.222zM16 8.889c-1.886 0-3.695 0.749-5.028 2.083s-2.083 3.142-2.083 5.028 0.749 3.695 2.083 5.028c1.334 1.334 3.142 2.083 5.028 2.083s3.695-0.749 5.028-2.083c1.334-1.334 2.083-3.142 2.083-5.028s-0.749-3.695-2.083-5.028c-1.334-1.334-3.142-2.083-5.028-2.083zM16 12.444c0.943 0 1.847 0.375 2.514 1.041s1.041 1.571 1.041 2.514c0 0.943-0.375 1.847-1.041 2.514s-1.571 1.041-2.514 1.041c-0.943 0-1.847-0.375-2.514-1.041s-1.041-1.571-1.041-2.514c0-0.943 0.375-1.847 1.041-2.514s1.571-1.041 2.514-1.041zM24 6.222c-0.472 0-0.924 0.187-1.257 0.521s-0.521 0.786-0.521 1.257 0.187 0.924 0.521 1.257c0.333 0.333 0.785 0.521 1.257 0.521s0.924-0.187 1.257-0.521c0.333-0.333 0.521-0.786 0.521-1.257s-0.187-0.924-0.521-1.257c-0.333-0.333-0.785-0.521-1.257-0.521z"></path>
</symbol>


  </defs>
</svg>
