<svg width="34" height="34" viewBox="0 0 34 34" fill="none" xmlns="http://www.w3.org/2000/svg">
<path fill-rule="evenodd" clip-rule="evenodd" d="M17 3.40039C18.4535 3.40039 19.9444 3.43779 21.3894 3.49899L23.0962 3.58059L24.7299 3.67749L26.2599 3.78119L27.6573 3.88999C29.174 4.00541 30.6014 4.65233 31.6879 5.71681C32.7745 6.7813 33.4506 8.19506 33.5971 9.70909L33.6651 10.4316L33.7926 11.9786C33.9116 13.5817 34 15.3293 34 17.0004C34 18.6715 33.9116 20.4191 33.7926 22.0222L33.6651 23.5692L33.5971 24.2917C33.4505 25.806 32.7742 27.22 31.6873 28.2845C30.6004 29.349 29.1726 29.9958 27.6556 30.1108L26.2616 30.2179L24.7316 30.3233L23.0962 30.4202L21.3894 30.5018C19.9271 30.5651 18.4637 30.598 17 30.6004C15.5363 30.598 14.0729 30.5651 12.6106 30.5018L10.9038 30.4202L9.2701 30.3233L7.7401 30.2179L6.3427 30.1108C4.82598 29.9954 3.39864 29.3485 2.31207 28.284C1.22551 27.2195 0.549424 25.8057 0.4029 24.2917L0.3349 23.5692L0.2074 22.0222C0.0779157 20.3513 0.00873739 18.6763 0 17.0004C0 15.3293 0.0884 13.5817 0.2074 11.9786L0.3349 10.4316L0.4029 9.70909C0.549367 8.19533 1.22521 6.78178 2.31143 5.71733C3.39764 4.65288 4.82459 4.00579 6.341 3.88999L7.7367 3.78119L9.2667 3.67749L10.9021 3.58059L12.6089 3.49899C14.0718 3.43563 15.5358 3.40275 17 3.40039ZM13.6 12.8779V21.1229C13.6 21.9083 14.45 22.3979 15.13 22.0069L22.27 17.8844C22.4254 17.795 22.5544 17.6662 22.6442 17.511C22.7339 17.3558 22.7811 17.1797 22.7811 17.0004C22.7811 16.8211 22.7339 16.645 22.6442 16.4898C22.5544 16.3346 22.4254 16.2058 22.27 16.1164L15.13 11.9956C14.9749 11.906 14.7989 11.8589 14.6198 11.8589C14.4407 11.859 14.2648 11.9062 14.1097 11.9958C13.9546 12.0854 13.8259 12.2142 13.7364 12.3694C13.6469 12.5245 13.5999 12.7005 13.6 12.8796V12.8779Z" fill="white"/>
</svg>
