<svg width="34" height="34" viewBox="0 0 34 34" fill="none" xmlns="http://www.w3.org/2000/svg">
<g clip-path="url(#clip0_422_2343)">
<path d="M24.5556 0C27.0604 0 29.4626 0.995037 31.2338 2.76621C33.005 4.53739 34 6.93962 34 9.44444V24.5556C34 27.0604 33.005 29.4626 31.2338 31.2338C29.4626 33.005 27.0604 34 24.5556 34H9.44444C6.93962 34 4.53739 33.005 2.76621 31.2338C0.995037 29.4626 0 27.0604 0 24.5556V9.44444C0 6.93962 0.995037 4.53739 2.76621 2.76621C4.53739 0.995037 6.93962 0 9.44444 0H24.5556ZM17 9.44444C14.9961 9.44444 13.0744 10.2405 11.6574 11.6574C10.2405 13.0744 9.44444 14.9961 9.44444 17C9.44444 19.0039 10.2405 20.9256 11.6574 22.3426C13.0744 23.7595 14.9961 24.5556 17 24.5556C19.0039 24.5556 20.9256 23.7595 22.3426 22.3426C23.7595 20.9256 24.5556 19.0039 24.5556 17C24.5556 14.9961 23.7595 13.0744 22.3426 11.6574C20.9256 10.2405 19.0039 9.44444 17 9.44444ZM17 13.2222C18.0019 13.2222 18.9628 13.6202 19.6713 14.3287C20.3798 15.0372 20.7778 15.9981 20.7778 17C20.7778 18.0019 20.3798 18.9628 19.6713 19.6713C18.9628 20.3798 18.0019 20.7778 17 20.7778C15.9981 20.7778 15.0372 20.3798 14.3287 19.6713C13.6202 18.9628 13.2222 18.0019 13.2222 17C13.2222 15.9981 13.6202 15.0372 14.3287 14.3287C15.0372 13.6202 15.9981 13.2222 17 13.2222ZM25.5 6.61111C24.999 6.61111 24.5186 6.81012 24.1644 7.16435C23.8101 7.51859 23.6111 7.99904 23.6111 8.5C23.6111 9.00096 23.8101 9.48141 24.1644 9.83565C24.5186 10.1899 24.999 10.3889 25.5 10.3889C26.001 10.3889 26.4814 10.1899 26.8356 9.83565C27.1899 9.48141 27.3889 9.00096 27.3889 8.5C27.3889 7.99904 27.1899 7.51859 26.8356 7.16435C26.4814 6.81012 26.001 6.61111 25.5 6.61111Z" fill="white"/>
</g>
<defs>
<clipPath id="clip0_422_2343">
<rect width="34" height="34" rx="9.52" fill="white"/>
</clipPath>
</defs>
</svg>
