<svg width="17" height="17" viewBox="0 0 17 17" fill="none" xmlns="http://www.w3.org/2000/svg">
<path d="M1.66584 16.3187C1.2851 16.6994 0.667794 16.6994 0.287052 16.3187C-0.093691 15.9379 -0.0936909 15.3206 0.287052 14.9399L6.92504 8.30188L0.287052 1.66389C-0.093691 1.28315 -0.093691 0.665842 0.287051 0.285099C0.667794 -0.0956436 1.2851 -0.0956437 1.66584 0.285099L8.30383 6.92309L14.9418 0.285098C15.3226 -0.0956443 15.9399 -0.0956438 16.3206 0.285099C16.7014 0.665842 16.7014 1.28315 16.3206 1.66389L9.68262 8.30188L16.3206 14.9399C16.7014 15.3206 16.7014 15.9379 16.3206 16.3187C15.9399 16.6994 15.3226 16.6994 14.9418 16.3187L8.30383 9.68067L1.66584 16.3187Z" fill="white"/>
</svg>
